<?xml version="1.0" encoding="utf-8"?>
<!-- Generator: Adobe Illustrator 21.1.0, SVG Export Plug-In . SVG Version: 6.00 Build 0)  -->
<svg version="1.1" id="Layer_1" xmlns="http://www.w3.org/2000/svg" xmlns:xlink="http://www.w3.org/1999/xlink" x="0px" y="0px"
	 viewBox="0 0 128 128" style="enable-background:new 0 0 128 128;" xml:space="preserve">
<style type="text/css">
	.st0{fill:#F5A923;}
	.st1{fill:#F6AD2C;}
	.st2{fill:#F5A821;}
	.st3{fill:#F5A922;}
	.st4{fill:#F5A81F;}
	.st5{fill:#F6AB28;}
	.st6{fill:#F5AB28;}
</style>
<g>
	<g>
		<path class="st0" d="M66.5,89c-12.2-0.1-22-10.1-21.9-22.5c0.1-12.2,10.4-22.3,22.4-22c12.3,0.3,22.1,10.3,22,22.5
			C88.9,79.1,78.7,89.1,66.5,89z M66.8,50C57.6,50,50,57.6,50,66.8c0,9.2,7.6,16.6,16.9,16.5c9.3-0.1,16.3-7.2,16.4-16.4
			C83.4,57.4,76.1,50,66.8,50z"/>
		<path class="st1" d="M48.3,46.1c-0.5,1.9-1.8,3.3-3.9,1.9c-3.1-2-5.8-4.6-7.7-7.7c-1.3-2.1,0.3-3.5,2.4-3.7
			C41.1,36.4,48.4,44,48.3,46.1z"/>
		<path class="st2" d="M32.3,63.9c2.6,0.6,6.9-1.4,7,2.6c0.1,4.5-4.3,2.9-6.9,3c-3,0.1-7.8,1-7.7-2.8C24.6,62.7,29.5,64.5,32.3,63.9
			z"/>
		<path class="st2" d="M69.6,101.5c-0.5,2.7,1.2,6.9-2.8,6.9c-4,0.1-3-4.2-2.7-6.7c0.3-2.7-2.2-7.5,2.8-7.4
			C71.2,94.4,68.9,99,69.6,101.5z"/>
		<path class="st3" d="M69.7,31.9c-0.8,2.8,1.5,7.3-3.1,7.3c-4,0-2.3-4.3-2.6-6.8c0-0.2,0-0.3,0-0.5c0.5-2.5-1.5-6.7,2.6-6.8
			C71.2,25.1,68.8,29.7,69.7,31.9z"/>
		<path class="st4" d="M101.1,63.9c3,0.5,7.3-1.2,7.4,2.7c0,4.3-4.4,2.9-7.1,2.9c-2.6,0-7.2,1.5-7-2.9C94.4,62,99.1,65.1,101.1,63.9
			z"/>
		<path class="st5" d="M98,38.4c0.2,2.5-7.4,10.1-9.4,9.6c-2.1-0.5-3.4-2-1.8-4c2.2-2.7,4.6-5.3,7.4-7.4C96,35.1,97.4,36.6,98,38.4z
			"/>
		<path class="st6" d="M98,95c-0.6,2.3-2.5,3.1-4.4,1.6c-2.6-2-5-4.4-7-7c-1.7-2.3,0.2-3.7,2.3-4.2C90.5,85.1,98.1,93.2,98,95z"/>
		<path class="st5" d="M39,97.9c-1.7-0.8-3.7-2-1.9-4.3c2-2.6,4.4-5,7-7c2-1.6,3.8-0.7,4.2,1.9C48.4,90.3,41,97.9,39,97.9z"/>
	</g>
</g>
</svg>
