<?xml version="1.0" encoding="utf-8"?>
<!-- Generator: Adobe Illustrator 21.1.0, SVG Export Plug-In . SVG Version: 6.00 Build 0)  -->
<svg version="1.1" id="Layer_1" xmlns="http://www.w3.org/2000/svg" xmlns:xlink="http://www.w3.org/1999/xlink" x="0px" y="0px"
	 viewBox="0 0 128 128" style="enable-background:new 0 0 128 128;" xml:space="preserve">
<style type="text/css">
	.st0{fill:#72B7D3;}
</style>
<g>
	<g>
		<path class="st0" d="M65.5,106.9c-22.1,0.1-40.1-16.3-42-39.7c-1.5-19.5,11-37.7,32.3-42.9c2.7-0.7,6.4-1.7,8.1-0.5
			c1.9,1.3-0.6,4.7-1,7.2C59.8,49.7,71.2,65.2,91.7,70c3.6,0.9,7.2,1.3,10.9,1c3.5-0.2,3.8,1.5,3.2,4.3c-3,14.5-17.4,28.3-32.3,30.6
			C70.8,106.4,68,107.3,65.5,106.9z M56.1,36.6c0-6.5-0.3-6.8-6.1-3.7c-12,6.5-19.1,16.5-19.9,30.2C29.2,79.7,39.6,94,55.1,98.9
			c15.2,4.8,30.5-0.9,39.9-14.8c3.4-5,3.4-5-2.6-6.1C71.1,74.2,56.1,57.1,56.1,36.6z"/>
	</g>
</g>
</svg>
