<?xml version="1.0" encoding="utf-8"?>
<!-- Generator: Adobe Illustrator 21.1.0, SVG Export Plug-In . SVG Version: 6.00 Build 0)  -->
<svg version="1.1" id="Layer_1" xmlns="http://www.w3.org/2000/svg" xmlns:xlink="http://www.w3.org/1999/xlink" x="0px" y="0px"
	 viewBox="0 0 128 128" style="enable-background:new 0 0 128 128;" xml:space="preserve">
<style type="text/css">
	.st0{fill:#050808;}
	.st1{fill:#F5A71D;}
	.st2{fill:#F6AA26;}
	.st3{fill:#F5A922;}
	.st4{fill:#F5A821;}
	.st5{fill:#F5A71F;}
	.st6{fill:#F5A61C;}
</style>
<g>
	<path class="st0" d="M47.4,117.7c-6,0-12,0-18,0c-4.4,0-8.4-1.2-11.3-4.4c-6.2-6.8-5.3-14.7,1.7-20.3c1.7-1.4,2.9-2.4,3.5-4.8
		c1.3-5.8,7.6-9.7,13.3-8.6c2,0.4,2.9-0.2,4.2-1.4c5.3-5,11.5-6.6,18.4-4c7.1,2.7,10.8,8.1,11.2,15.6c0.1,2,0.5,2.7,2.3,3.6
		c6.2,3,8.7,8.6,7.2,14.8c-1.3,5.4-6.5,9.5-13,9.7C60.4,117.9,53.9,117.7,47.4,117.7z M47.7,111.9c6.7,0,13.3,0.1,20,0
		c4.2-0.1,7.4-3.5,7.3-7.3c-0.1-4-3.8-7.7-8-7c-4.2,0.7-3.5-0.8-2.7-3.5c1.9-6.3-0.9-12.4-6.6-14.8c-5.6-2.4-11.5-0.5-14.9,5.3
		c-1.3,2.2-2,2.5-4.4,1.3c-5.7-2.9-10.9,0.8-10.2,7.2c0.2,2.1-0.3,2.4-2,2.9c-5.1,1.6-7.1,4.5-6.5,9c0.6,4.2,3.8,6.8,8.9,6.9
		C35.1,112,41.4,111.9,47.7,111.9z"/>
	<path class="st1" d="M48,61c0.1-12.3,8.9-21.8,21.9-23.6C80.7,36,92.1,44.1,95,55.1c3.1,11.8-2.7,23.9-13.5,28.4
		c-1.2,0.5-2.5,1-3.8,1.2c-1.5,0.2-2.5-0.7-2.8-2.2c-0.3-1.8,0.5-2.9,2.2-3.4c3.6-1,6.6-3,9.1-5.8c5.2-6.1,5.6-15.6,1.1-22.3
		c-4.8-7-13.6-9.9-21.6-7.1C58,46.7,52.5,54.8,53.2,62.5c0.2,2.1,1.9,5.1-1.9,5.4c-3.8,0.3-3.1-3-3.3-5.4C47.9,62,48,61.5,48,61z"/>
	<path class="st2" d="M74.8,24.4c-0.5,2.4,1.4,6.9-2.8,7c-4.4,0.1-2.5-4.5-2.9-7.1c-0.2-1.5,0-3,0-4.5c0-1.9,1-3.4,2.8-3.5
		c1.9-0.1,2.8,1.5,2.9,3.4C74.8,21.1,74.8,22.6,74.8,24.4z"/>
	<path class="st3" d="M96,82c1.7,0.1,9.6,7.9,9.7,9.6c0.1,2.1-2.6,3.6-4.3,2.2c-2.8-2.3-5.2-5.1-7.8-7.7c-0.8-0.8-0.8-1.8-0.1-2.7
		C94.1,82.6,94.9,81.9,96,82z"/>
	<path class="st4" d="M42,28.9c0.6,0.3,1.5,0.6,2,1.1c2.3,2.2,4.5,4.4,6.6,6.7c0.9,0.9,1.7,2.1,0.5,3.5c-1.2,1.5-2.8,1.6-3.9,0.5
		c-2.7-2.4-5.4-4.9-7.6-7.8C38.1,30.9,40,29.7,42,28.9z"/>
	<path class="st5" d="M105.7,30.9c-0.1,1.8-8.3,9.9-9.7,10c-1.1,0.1-1.8-0.6-2.5-1.4c-0.9-1.2-0.5-2.2,0.4-3.1c2.3-2.3,4.7-4.7,7-7
		c0.9-0.9,2.1-1.2,3.1-0.5C104.9,29.5,105.3,30.4,105.7,30.9z"/>
	<path class="st1" d="M109.4,58.9c1.7,0,3.3-0.1,5,0c1.6,0.1,3.2,1.1,3.2,2.6c-0.1,1.4-1.6,2.5-3.3,2.5c-3.2,0.1-6.3,0-9.5,0
		c-1.7,0-2.9-0.9-2.9-2.7c0-1.9,1.3-2.5,3-2.5C106.4,58.9,107.9,58.9,109.4,58.9C109.4,58.9,109.4,58.9,109.4,58.9z"/>
	<path class="st6" d="M34.5,58.9c1.5,0,3,0,4.4,0c1.7,0,3,0.7,3,2.5c0,1.8-1.2,2.6-2.9,2.6c-3.1,0-6.3,0-9.4,0
		c-1.8,0-2.8-0.9-2.7-2.8c0.1-1.6,1.1-2.3,2.6-2.4C31.2,58.9,32.9,58.9,34.5,58.9C34.5,58.9,34.5,58.9,34.5,58.9z"/>
</g>
</svg>
