<?xml version="1.0" encoding="utf-8"?>
<!-- Generator: Adobe Illustrator 21.1.0, SVG Export Plug-In . SVG Version: 6.00 Build 0)  -->
<svg version="1.1" id="Layer_1" xmlns="http://www.w3.org/2000/svg" xmlns:xlink="http://www.w3.org/1999/xlink" x="0px" y="0px"
	 viewBox="0 0 128 128" style="enable-background:new 0 0 128 128;" xml:space="preserve">
<style type="text/css">
	.st0{fill:#72B7D3;}
</style>
<g>
	<g>
		<path d="M56.2,117.3c-8.2,0-16.3,0.1-24.5,0c-8.2-0.1-14.5-4.8-16.6-11.9c-2.2-7.5,0.6-14.9,7.7-19.3c1.8-1.1,2.4-2.5,2.9-4.2
			C28,73.7,34,69.3,42.3,70c2.5,0.2,4.1-0.1,6-2c6.6-6.4,14.6-8,23-4.6c8.6,3.5,13.4,10.2,13.6,19.7c0.1,2.2,0.4,3.3,2.8,4.4
			c7.5,3.3,10.9,10.2,9.3,17.4c-1.7,7.4-7.7,12.3-16,12.4C72.8,117.4,64.5,117.3,56.2,117.3z M56.1,111c7.8,0,15.6,0,23.5,0
			c6.9,0,10.9-3.3,11-8.8c0.1-5.6-4-9.2-10.7-9c-3.4,0.1-3.7-0.7-2.7-3.8c2.8-8.6-0.2-15.9-7.5-19.3c-7.2-3.4-15-0.8-19.6,6.7
			c-1.4,2.3-2.3,3-5,1.5c-7.2-4-13.6,0.1-13,8.2c0.2,2.6-0.1,3.7-2.9,4.5c-5.6,1.6-8.7,6.2-8,11c0.8,5.4,5.2,8.9,11.4,8.9
			C40.5,111,48.3,111,56.1,111z"/>
		<path class="st0" d="M56.1,46.3c0.1-14.8,11.2-27.8,25.6-30.1c3.4-0.5,6-1,4.8,4.5C83.1,36,94.6,49.3,111,50.1
			c8,0.4,8.3,0.7,5.4,8.3c-3.6,9.6-10.7,15.4-20.2,18.5c-2,0.6-3.5,1-4.4-2c-0.9-3.1,0.8-3.3,2.8-3.9c5.8-1.8,10.3-5.3,13.4-10.6
			c1.3-2.2,1-2.9-1.7-3.5C89.2,53,81.4,43.7,80,26c-0.2-1.9-0.2-2.7-2.5-1.9c-8.7,3-16.2,15.6-15,24.9c0.3,2.2,2.5,5.5-2.3,6
			c-4.7,0.5-3.5-3.3-4.1-5.7C55.9,48.3,56.1,47.3,56.1,46.3z"/>
	</g>
</g>
</svg>
