<?xml version="1.0" encoding="utf-8"?>
<!-- Generator: Adobe Illustrator 21.1.0, SVG Export Plug-In . SVG Version: 6.00 Build 0)  -->
<svg version="1.1" id="Layer_1" xmlns="http://www.w3.org/2000/svg" xmlns:xlink="http://www.w3.org/1999/xlink" x="0px" y="0px"
	 viewBox="0 0 128 128" style="enable-background:new 0 0 128 128;" xml:space="preserve">
<style type="text/css">
	.st0{fill:#040707;}
	.st1{fill:#F5A71E;}
	.st2{fill:#F6AB27;}
	.st3{fill:#F5AA26;}
	.st4{fill:#F5A71F;}
</style>
<g>
	<g>
		<path class="st0" d="M62,117c-9.3,0-18.7,0.1-28,0c-9.6-0.1-16.9-6-19.4-15.5c-2-7.6,1.9-15.8,9.9-20.3c1.6-0.9,2.4-1.6,2.7-3.6
			c1.5-10.1,10.2-16.4,20.1-14.4c2.2,0.4,3.3,0.4,4.9-1.4c7.1-8,17.6-10.5,27.2-6.8c9.5,3.7,15.8,12.8,15.6,23.3
			c0,2.6,0.6,3.7,3,4.6c8.7,3.3,12.7,10.7,11.2,19.8c-1.3,7.6-9.1,14.1-17.5,14.3C81.7,117.1,71.8,117,62,117z M62.1,111.1
			C62.1,111.1,62.1,111.1,62.1,111.1c10,0,20,0.1,30-0.1c6.8-0.1,12-5.5,11.9-12.1c-0.1-6.5-5.5-12-12.3-11.8
			c-3.3,0.1-4.5,0.2-3.2-3.9c3-9.3-1.7-18.9-10.4-22.8c-8.7-3.9-18.9-0.8-23.8,7.5c-1.5,2.6-2.4,3.6-5.4,1.7
			c-3.8-2.5-8-1.9-11.7,0.7c-3.7,2.7-6,6.5-4.8,11.2c0.7,2.8-0.4,2.9-2.5,3.5c-7.3,2-11,7.6-10.1,14.9c0.8,6.4,6.4,11.1,13.7,11.1
			C43.1,111.1,52.6,111.1,62.1,111.1z"/>
		<path class="st1" d="M86.4,32.7c7.8,0,13.5,4,15.6,10.2c2.1,6.1,0.6,11.4-4.1,15.8c-1.3,1.2-3.1,2.8-4.7,1c-1.8-2.1,0.9-2.6,2-3.6
			c3.6-3.5,4.5-7.7,2.6-12.3c-1.9-4.6-5.4-7-10.5-6.9c-5.3,0.1-8.5,2.9-10.6,7.6c-0.7,1.6,0.6,6-3.3,4.5c-3.1-1.3-1-4.5-0.2-6.6
			C75.7,36,80.6,32.8,86.4,32.7z"/>
		<path class="st2" d="M71,35.5c-2.8-1.8-5.6-3.9-6.8-7.2c-0.6-1.5,1.3-3,2.8-2.3c3.2,1.4,5.8,3.7,6.8,7.2
			C74.3,34.6,72.7,35.3,71,35.5z"/>
		<path class="st3" d="M89.8,22.7c0.1,2.9,0.2,6.2-2.7,5.9c-3.8-0.3-2.1-4.1-2.3-6.5c-0.2-2.2-0.4-5.8,2.4-5.5
			C90.3,17,90,20.6,89.8,22.7z"/>
		<path class="st4" d="M104.1,62c2.5,1.9,5.5,3.9,6.6,7.2c0.5,1.4-1.5,3.1-2.8,2.4c-2.9-1.7-5.9-3.8-6.8-7.4
			C100.8,62.8,102.2,62,104.1,62z"/>
		<path class="st1" d="M103.8,35.1c-1.8-0.3-3.2-1.2-2.6-2.6c1.3-3.3,3.8-5.8,7.1-7c1.3-0.5,3.3,1.3,2.5,2.7
			C109.2,31.2,106.7,33.6,103.8,35.1z"/>
		<path class="st1" d="M112.7,51.1c-2-0.4-5.4,1.2-5.5-2.3c-0.2-4,3.4-2.6,5.6-2.7c2.3-0.1,5.9-1,5.7,2.7
			C118.4,51.9,115,50.8,112.7,51.1z"/>
	</g>
</g>
</svg>
