<?xml version="1.0" encoding="utf-8"?>
<!-- Generator: Adobe Illustrator 21.1.0, SVG Export Plug-In . SVG Version: 6.00 Build 0)  -->
<svg version="1.1" id="Layer_1" xmlns="http://www.w3.org/2000/svg" xmlns:xlink="http://www.w3.org/1999/xlink" x="0px" y="0px"
	 viewBox="0 0 128 128" style="enable-background:new 0 0 128 128;" xml:space="preserve">
<style type="text/css">
	.st0{fill:#FFFFFF;}
	.st1{fill:#73B8D3;}
</style>
<g>
	<path class="st0" d="M66.8,116.7c-10.2,0-20.3,0.1-30.5,0c-10.6-0.1-18.7-5.9-21.2-14.9C12.5,92.2,16.3,83.5,26,78
		c2.1-1.2,2.1-2.7,2.5-4.4C31,62.3,40,56.4,51.5,58.8c2,0.4,2.9-0.1,4.2-1.5c8.4-9.1,19.6-11.8,30.3-7.5c10.7,4.4,17,14,16.8,26.4
		c0,2.3,0.5,3.1,2.6,3.8c9.2,3.4,14.7,11.7,13.3,19.8c-1.6,9.7-9.2,16.5-19.4,16.8C88.5,116.9,77.6,116.7,66.8,116.7z M67.1,110.7
		c10.3,0,20.6,0.1,30.9,0c8.5-0.1,14.6-5.5,14.8-12.9c0.2-7.6-6-13.4-14.7-13.5c-2.7,0-3.3-0.2-2.5-3.2c3.3-11.8-1-21.8-11.1-26.2
		c-10.1-4.4-19.7-1-26.8,9.5c-1,1.5-1.5,2.4-3.8,1.4c-11.8-5-19.9,0.3-19.8,12.9c0,1.7-0.1,2.6-2,3.2c-8.6,2.8-13,8.8-11.9,15.9
		c1.2,8.1,7.4,12.8,16.9,12.9C47.1,110.7,57.1,110.7,67.1,110.7z"/>
	<path class="st1" d="M76.2,38.1c-0.2-9.8,9-19.7,19-20.5c2.5-0.2,2.8,0.4,2.5,2.6c-1.3,12,3.3,18.3,15.3,19.9
		c5.5,0.7,5.8,2.9,3.8,7.1c-1.9,4-4.9,7-8.5,9.5c-1.9,1.3-3,0.3-4.1-1.2c-1.4-1.9,0.4-2.1,1.4-2.8c0.8-0.5,1.8-1,2.5-1.7
		c2.7-2.6,5.3-4.6-1.1-6.4c-8.5-2.4-13.7-8.8-14.7-17.7c-0.6-4.8-2.1-3.3-4.3-1.5c-4.2,3.3-6.1,7.8-6.7,12.9
		c-0.2,1.3,1.7,3.5-1.6,3.6C77,41.9,76.3,40.4,76.2,38.1z"/>
</g>
</svg>
