<?xml version="1.0" encoding="utf-8"?>
<!-- Generator: Adobe Illustrator 21.1.0, SVG Export Plug-In . SVG Version: 6.00 Build 0)  -->
<svg version="1.1" id="Layer_1" xmlns="http://www.w3.org/2000/svg" xmlns:xlink="http://www.w3.org/1999/xlink" x="0px" y="0px"
	 viewBox="0 0 128 128" style="enable-background:new 0 0 128 128;" xml:space="preserve">
<style type="text/css">
	.st0{fill:#FFFFFF;}
</style>
<g>
	<path class="st0" d="M67,102.1c-10,0-20,0.1-30,0c-12.1-0.1-19.7-5.8-23-16.9c-2.4-8.1,1.6-16.8,11-22.9c1.9-1.3,2.4-2.8,2.9-4.8
		c2.7-11,11.7-17,22.7-15.1c2.3,0.4,3.6-0.2,5.2-1.8c8.5-8.2,18.1-12.5,29.8-7.5c11.3,4.8,17.8,13.1,17.6,25.8c0,2.4,0.7,3.9,3.1,5
		c9.5,4.2,15,13.1,13.5,21c-2.1,10.3-10.3,17.1-21.5,17.3C88,102.3,77.5,102.1,67,102.1z M67.3,95c11,0,22,0.1,32.9,0
		c7.8-0.1,13.2-5.6,13.1-12.8c-0.1-7.1-5.6-12.7-13.2-12.8c-3.7,0-4.9-0.7-3.9-4.8c2.7-11.3-2.1-21-11.9-25.1
		c-9.6-4-19.4-0.8-25.9,8.9c-1.6,2.4-2.8,2.9-5.6,1.6c-9.7-4.4-18.5,1.3-18.4,11.8c0,3-0.7,4.4-3.7,5.3c-7.6,2.5-11.4,8.7-10.3,16.1
		c1,7.2,6.6,11.8,14.9,11.9C46,95.1,56.6,95.1,67.3,95z"/>
</g>
</svg>
