<?xml version="1.0" encoding="utf-8"?>
<!-- Generator: Adobe Illustrator 21.1.0, SVG Export Plug-In . SVG Version: 6.00 Build 0)  -->
<svg version="1.1" id="Layer_1" xmlns="http://www.w3.org/2000/svg" xmlns:xlink="http://www.w3.org/1999/xlink" x="0px" y="0px"
	 viewBox="0 0 128 128" style="enable-background:new 0 0 128 128;" xml:space="preserve">
<style type="text/css">
	.st0{fill:#FFFFFF;}
	.st1{fill:#0260FF;}
</style>
<g>
	<path class="st0" d="M95.8,87c-2,0-4,0-6,0c-2,0-3.9-0.2-3.8-2.7c0.1-2.4,2.1-2.7,4-2.7c3.2,0,6.3,0.1,9.5,0
		c8.4-0.2,14.7-6.3,14.4-14c-0.3-8-6.9-13.7-15.6-12.9c-3.4,0.3-2.8-1.1-2-3c4.8-12-3.4-23.6-11.4-27c-10.6-4.3-21-0.8-27.5,10
		c-1.2,2-1.6,2.1-3.5,0.9c-4.6-2.9-9.4-3-14-0.1c-4.6,2.9-6.7,7.3-5.9,12.7c0.4,2.5-0.4,3.2-3,3.8c-7.6,1.8-12,8.7-11,16.6
		c0.8,7,6.8,12.4,14.3,12.8c3.2,0.2,6.3,0,9.5,0c1.8,0,3.3,0.6,3.3,2.8c0,2.2-1.4,2.8-3.3,2.6c-4.9-0.3-9.9,0.7-14.9-0.9
		c-8.2-2.7-14.5-9.7-14.7-18.7c-0.2-7.9,3.3-14.5,10.5-18.4c2.4-1.3,3.4-2.8,3.9-5.5c2.3-11.3,11.6-17.1,23-14.7
		c1.8,0.4,2.9,0.1,4.2-1.4c8.3-9.3,19.2-12.2,30-8.3c10.8,4,17.2,13.7,17.3,26.5c0,1.9-0.1,3.3,2.2,4.2
		c10.2,3.9,15.8,12.4,14.1,20.7C117.1,81.3,109.7,87,97.8,87C97.2,87,96.5,87,95.8,87z"/>
	<path class="st1" d="M45.9,103.7c-2,3.1-3.8,6.6-6.9,9.1c-0.9,0.7-1.9,0-2.6-0.7c-0.8-0.9-1.4-2-0.6-3.1c1.8-2.6,3.5-5.2,5.4-7.6
		c0.7-1,1.9-1.2,3.1-0.4C45.2,101.5,45.8,102.3,45.9,103.7z"/>
	<path class="st1" d="M58.1,84.8c-1.6,3.1-3.5,6.5-6.7,9c-0.9,0.7-1.9,0-2.6-0.7c-1-0.9-1-2.2-0.4-3.2c1.6-2.5,3.3-4.9,5.2-7.3
		c0.7-0.9,1.8-1.3,3.1-0.7C57.7,82.3,58.1,83.1,58.1,84.8z"/>
	<path class="st1" d="M62.3,93.9c-1.8-0.2-3-1.5-2.4-3.3c1.1-3.3,3.3-6.2,5.8-8.5c1.7-1.5,3.5-0.3,4.2,1.7
		C70.4,85.4,64.2,93.8,62.3,93.9z"/>
	<path class="st1" d="M73.9,94c-1.6-0.6-3.5-1.6-2.3-3.8c1.5-2.8,3.4-5.3,5.4-7.7c1.5-1.7,3.4-1.2,4.3,0.9
		C82.2,85.2,76.1,93.8,73.9,94z"/>
	<path class="st1" d="M66.6,100.5c2.1,0.7,3.2,2.1,2.1,4.1c-1.5,2.6-3.3,5-5.2,7.3c-1.6,2-3.3,1.3-4.3-0.7
		C58.1,109.2,64.3,100.3,66.6,100.5z"/>
	<path class="st1" d="M57.7,103.4c-2.2,3.5-4,7-7.1,9.5c-1,0.7-1.8-0.2-2.5-0.9c-0.8-0.7-1.4-1.7-0.7-2.6c1.9-2.8,4-5.6,6.1-8.3
		c0.7-0.8,1.9-0.8,2.7,0C56.7,101.6,57.1,102.5,57.7,103.4z"/>
</g>
</svg>
