<?xml version="1.0" encoding="utf-8"?>
<!-- Generator: Adobe Illustrator 21.1.0, SVG Export Plug-In . SVG Version: 6.00 Build 0)  -->
<svg version="1.1" id="Layer_1" xmlns="http://www.w3.org/2000/svg" xmlns:xlink="http://www.w3.org/1999/xlink" x="0px" y="0px"
	 viewBox="0 0 128 128" style="enable-background:new 0 0 128 128;" xml:space="preserve">
<style type="text/css">
	.st0{fill:#FFFFFF;}
	.st1{fill:#0260FF;}
</style>
<g>
	<path class="st0" d="M96.5,78c6.8,0.9,13.3-1,16.5-8.6c3.6-8.7-3.1-18.4-12.7-18.3c-3.7,0-4.8,0-3.5-4.3
		c3.2-10.5-2.2-21.3-11.9-25.5c-10-4.3-21.3-0.6-27,9.4c-1.5,2.6-2.5,2.4-4.8,1.2c-9.7-5-19.8,1.5-19.1,12.4c0.2,3.2-1,3.8-3.5,4.6
		c-7.7,2.4-11.6,8.8-10.5,16.9c1,7,7.4,12.2,15.2,12.2c3,0,6,0,9,0c1.6,0,2.5,0.8,2.8,2.3c0.3,1.5-0.2,2.6-1.7,3.2
		c-7.2,3-22-1.4-26.8-7.9c-8.4-11.3-3.6-24.6,6.5-30.3c2-1.1,3-2.2,3.5-4.7C30.6,29,40,22.8,51.5,25.3c2.4,0.5,3.1-0.2,4.4-1.6
		c8.4-9.3,19.1-12,30.1-7.8c10.7,4.1,17.1,13.8,16.9,26.1c-0.1,2.9,0.9,3.8,3.4,4.6c8.2,2.8,14.1,11.6,13.3,19
		c-1,9.3-8.1,16.7-17.5,17.7c-4.3,0.5-8.6,0.2-13,0.2c-1.6,0-3.1-0.6-3.1-2.5c-0.1-2,1.1-3,3.1-3.1C91.3,78,93.5,78,96.5,78z"/>
	<path class="st1" d="M51.9,119.6c-1.8-0.7-3.6-1.6-2.4-4.3c6-14.2,12.1-28.4,18.1-42.6c0.7-1.6,1.6-3.2,3.7-2.2
		c2.2,1,2,2.8,1.2,4.7c-4,9.5-8.1,18.9-12.1,28.4c-1.9,4.4-3.7,8.9-5.6,13.3C54.3,118.2,53.6,119.3,51.9,119.6z"/>
	<path class="st1" d="M60.7,73.5c-0.3,0.8-0.5,1.6-0.9,2.4c-3.9,9.5-7.8,18.9-11.8,28.4c-0.8,2-1.5,4.6-4.4,3.2
		c-2.5-1.1-1.5-3.2-0.7-5.1c4-9.6,8-19.2,11.9-28.9c0.7-1.7,1.5-3,3.5-2.8C60,71,60.7,72.1,60.7,73.5z"/>
	<path class="st1" d="M68.9,108c-1.7-0.6-3.3-1.5-2.4-3.9c4.3-10.5,8.7-21.1,13-31.6c0.7-1.7,2.1-2.2,3.7-1.5
		c1.5,0.7,2.1,1.9,1.3,3.7c-4.3,10.2-8.4,20.5-12.7,30.7C71.3,106.6,70.6,107.7,68.9,108z"/>
</g>
</svg>
