<?xml version="1.0" encoding="utf-8"?>
<!-- Generator: Adobe Illustrator 21.1.0, SVG Export Plug-In . SVG Version: 6.00 Build 0)  -->
<svg version="1.1" id="Layer_1" xmlns="http://www.w3.org/2000/svg" xmlns:xlink="http://www.w3.org/1999/xlink" x="0px" y="0px"
	 viewBox="0 0 128 128" style="enable-background:new 0 0 128 128;" xml:space="preserve">
<style type="text/css">
	.st0{fill:#F5A71D;}
	.st1{fill:#0260FF;}
</style>
<g>
	<path d="M95.8,83.2c-1.8,0-3.7,0-5.5,0c-1.8-0.1-4,0.3-4.2-2.3c-0.2-2.8,1.9-3,4.1-3c3.7,0,7.3,0.2,11-0.1c6-0.4,11.2-5.1,12.6-11
		c1.2-5.2-1.8-11.4-6.8-14.4c-2.4-1.4-5-1.9-7.7-1.6c-2.7,0.3-4,0-2.8-3.3c4.8-12.9-4.5-26.5-17.8-28.2c-7.7-1-16.2,3-20.8,10.9
		c-1.3,2.2-2.1,2.8-4.7,1.5c-9.9-5.3-20.1,1.4-19.3,12.7c0.2,3-0.9,3.4-3.2,4.1c-7.9,2.4-12,9.1-10.8,17.2c1.1,7,7.4,12.1,15.3,12.3
		c3,0.1,6,0,9,0c1.5,0,2.5,0.7,2.7,2.3c0.1,1.3-0.2,2.2-1.5,2.8c-6.3,2.7-21.1-0.9-26-6.5c-9.6-10.9-5.5-25.3,5.2-31.4
		c2.2-1.2,3.3-2.3,3.7-5c2-11.3,11.6-17.6,22.7-15.1c2.4,0.5,3.5,0,4.9-1.7c5.4-6.6,12.8-10.5,20.8-10c10.1,0.6,18.6,5.6,23.5,15.3
		c2.2,4.4,3,9.1,2.7,14c-0.1,1.8,0.1,2.7,2.3,3.4c9.1,2.7,15.5,11.9,14.2,19.8c-2,11.7-10.6,17.8-19.7,17.3
		C98.5,83.2,97.1,83.2,95.8,83.2z"/>
	<path class="st0" d="M71.8,84c2,0.5,5.3-1.3,6.5,0.8c0.8,1.5-1.9,3.9-3,5.9c-5.2,8.7-10.4,17.3-15.7,25.9c-0.9,1.4-1.5,4.4-4.3,2.8
		c-2.5-1.5-1.5-3.7-0.3-5.6c4.2-6.9,8.5-13.8,12.7-20.8c2.1-3.5,2-3.7-1.9-3.7c-3,0-6,0-9,0c-2.1,0-3.4-0.2-1.7-2.6
		c5.4-7.6,10.8-15.1,16.1-22.8c1.2-1.7,2.6-2.7,4.5-1.5c2.2,1.4,1.2,3,0,4.6c-3.4,4.7-6.7,9.5-10.1,14.2c-0.5,0.8-1.6,1.6-1,2.5
		c0.3,0.4,1.5,0.3,2.3,0.3C68.5,84,70,84,71.8,84z"/>
	<path class="st1" d="M35.6,93c-2.3,4.4-3.8,9.1-6.7,13.2c-0.7,1-2,1.2-3.1,0.3c-1.1-0.9-1.8-1.9-1.1-3.4c1.9-3.8,3.6-7.7,5.6-11.5
		c0.7-1.3,1.9-1.9,3.3-1.3C34.8,90.7,35.1,91.8,35.6,93z"/>
	<path class="st1" d="M40.9,106.9c-2.4,0.2-3.9-1.8-3-4.1c1.6-3.8,3.4-7.5,5.3-11.2c0.6-1.2,1.8-2.1,3.3-1.6c1.3,0.5,2.5,1.6,1.9,3
		c-1.9,4.4-4,8.6-6.2,12.9C42,106.5,41.2,106.8,40.9,106.9z"/>
	<path class="st1" d="M81,106.9c-2-0.5-2.8-2.1-2-4c1.6-3.9,3.6-7.7,5.5-11.5c0.7-1.3,2.1-1.8,3.4-1.1c1.1,0.6,2.3,1.7,1.5,3.2
		c-2,4.1-4,8.3-6.1,12.4C83,106.6,82.2,107,81,106.9z"/>
	<path class="st1" d="M102.8,93.3c-2,4.1-4.1,8.4-6.3,12.6c-0.6,1.1-1.8,1.5-3,0.8c-1.1-0.6-2-1.5-1.5-2.8c1.7-4.6,3.6-9.1,6.4-13.2
		c0.6-0.9,1.8-0.9,2.7-0.4C102.1,90.9,102.9,91.7,102.8,93.3z"/>
</g>
</svg>
