<?xml version="1.0" encoding="utf-8"?>
<!-- Generator: Adobe Illustrator 21.1.0, SVG Export Plug-In . SVG Version: 6.00 Build 0)  -->
<svg version="1.1" id="Layer_1" xmlns="http://www.w3.org/2000/svg" xmlns:xlink="http://www.w3.org/1999/xlink" x="0px" y="0px"
	 viewBox="0 0 128 128" style="enable-background:new 0 0 128 128;" xml:space="preserve">
<style type="text/css">
	.st0{display:none;fill:#FDFEFE;}
	.st1{fill:#76BAD5;}
</style>
<g>
	<path class="st0" d="M1,65C1,44.7,1.1,24.3,0.9,4c0-2.5,0.6-3.1,3.1-3.1C44.7,1,85.3,1,126,0.9c2.5,0,3.1,0.6,3.1,3.1
		c-0.1,40.7-0.1,81.3,0,122c0,2.5-0.6,3.1-3.1,3.1c-40.7-0.1-81.3-0.1-122,0c-2.5,0-3.1-0.6-3.1-3.1C1.1,105.7,1,85.3,1,65z"/>
	<path class="st1" d="M44.9,84.9c-2.2-0.9-6.6,1.3-6.5-2.5c0.1-3.6,4.3-2.3,6.7-2c8.4,0.8,10.4-7,15.2-11.4c-4.4,0-8.8-0.1-13.2,0
		c-3.1,0.1-4.1,3.1-6.2,4.6c-1.6,1.1-2.7,4.6-5.1,2.3c-2.4-2.2,0.9-3.6,2-5.2c0.3-0.4,0.4-0.8,1-1.8c-3.2,0-5.9,0-8.7,0
		c-1.4,0-2.8-0.6-2.7-2.3c0.1-1.3,1.4-1.7,2.6-1.8c2.8,0,5.6,0,8.3,0c0-0.7,0-1-0.1-1.3c-1-1.9-5.2-3.4-2.2-5.9
		c2.4-2.1,4,1.5,5.2,3.1c5.5,6.9,12.8,3,20.2,4.5c-4.1-4.3-7.2-7.7-10.5-11c-2.2-2.2-5.1-0.9-7.6-1.2c-1.8-0.2-4.9,0.8-5-1.8
		c-0.2-3.2,3-2,5-2.3c0.5-0.1,1-0.1,3.3-0.2c-2.3-1.8-4-2.6-4.9-3.9c-1.3-1.7-5.5-2.9-2.7-5.7c2.5-2.4,3.6,1.6,5.4,2.7
		c1.5,0.9,2.2,2.9,4.1,3.4c1.4-2.2-1.1-6.8,2.4-6.6c3.9,0.2,2.1,4.6,2,7c-0.3,4.1,1.7,6.5,4.3,8.9c2.2,2.1,4.2,4.6,6.9,6.5
		c0.2-7.2,3.4-14.7-4.2-20.1c-1.5-1-4.5-2.8-2.1-5.1c2.4-2.3,3.5,0.9,5.1,2.1c0.4,0.3,0.8,0.5,2,1.3c0-3.2,0-5.7,0-8.3
		c0-1.5-0.1-3.5,1.8-3.5c2.2-0.1,2.2,2,2.2,3.7c0,2.3,0,4.6,0,7c0.5,0,0.8,0.2,1.1,0.1c2-0.8,3.3-5.2,5.9-2.3
		c2.2,2.5-1.4,4.2-2.9,5.3c-4.7,3.3-4.2,7.9-4.1,12.5c0,2.1,0,4.3,0,8c4.7-6.3,12.5-8.6,11.3-17.4c-0.3-2.1-1.4-6.1,2.3-5.9
		c3.2,0.1,1.8,4,2.2,6.3c-0.2,0.5-0.1,0.6,0.4,0.4c1.5-1.4,2.8-2.8,4.4-4c1.4-1.1,2.5-4.1,4.7-2c2.2,2.1-0.4,3.5-1.7,4.8
		c-1.3,1.4-2.9,2.7-4.3,3.9c0.6,0.7,0.7,1,0.9,1.1c1.9,0.8,5.6-1.4,5.6,2.1c0,3.5-3.8,2.2-5.5,1.9c-5.7-1.1-8.4,2.8-11.7,6
		c-1.7,1.7-3.6,3.3-6.5,5.9c6.3,0,10.9,0.2,15.4-0.1c3-0.1,4-3.2,6.2-4.7c1.6-1.1,2.7-4.5,5.1-2.3c2.6,2.4-1.1,3.4-2,5
		c-0.3,0.5-0.7,1-1.6,2.1c3.3,0,5.8,0,8.4,0c1.5,0,3.4-0.2,3.3,2c-0.1,2-1.9,2-3.4,2c-2.5,0-5,0-7.5,0c0,0.5-0.1,0.9,0.1,1.1
		c1.1,1.8,5,3,3,5.3c-2.3,2.7-4.7-0.5-5.9-2.3c-3.4-5-8.2-4.1-13-4.1c-2.1,0-4.2,0-7.4,0c6.1,5.5,9.5,13.1,18.8,11.3
		c1.7-0.3,4.3-0.5,4.4,2c0.1,3-2.6,2.3-4.5,2.4c-0.6,0-1.3-0.2-2.5-0.3c1.5,3.2,4.1,4.7,6,6.9c0.8,0.9,1.6,2,0.7,3.1
		c-1,1.3-2.4,0.9-3.5-0.1c-2.1-1.8-4.2-3.7-6.3-5.6c0,0-0.4,0.1-0.4,0.3c-0.2,2.2,1.8,5.8-2,6c-3.3,0.1-2.4-3.6-2.1-5.6
		c0.9-5.3-2.2-8.4-5.6-11.4c-1.8-1.6-3.6-3.3-5.7-5.3c0,4.8,0,9.3,0,13.7c0,3.4,3,4.6,4.6,6.7c1.2,1.6,4.2,3,1.9,5.2
		c-2.1,1.9-3.2-1.2-4.7-2.1c-0.3-0.2-0.6-0.3-1.2-0.7c-1.1,2.2-0.3,4.5-0.5,6.7c-0.1,1.6,0.2,3.8-2,3.9c-2.6,0.2-1.9-2.2-2-3.7
		c-0.1-2.4,0-4.9,0-7.4c-2.2,0.4-2.9,2.1-4.2,3.1c-1,0.7-1.9,1.5-3,0.3c-1-1-0.8-2.1,0-3.1c0.1-0.1,0.2-0.3,0.3-0.4
		c8.6-5.3,7-13.7,6.7-22.9c-5.4,6.4-13.6,9.7-11.7,19.6c0.3,1.5,0.5,3.7-2.1,3.6c-2.1-0.1-1.9-1.9-1.9-3.4c0-1,0-1.9-1-3.5
		c-1.7,1.9-3.5,3.8-5.3,5.7c-1.1,1.2-2.4,2-3.8,0.5c-1.4-1.4-0.1-2.4,0.8-3.4c1.8-2,3.6-3.9,5.4-5.8l0.2-0.4L44.9,84.9z"/>
	<path class="st0" d="M85.1,45.1c-0.2,0.1-0.4,0.2-0.6,0.3c0.1-0.2,0.2-0.5,0.3-0.7C84.9,44.9,85,45,85.1,45.1z"/>
	<path class="st0" d="M44.9,84.9c0.2-0.1,0.4-0.2,0.6-0.4c-0.1,0.2-0.2,0.4-0.4,0.5C45.1,85.1,44.9,84.9,44.9,84.9z"/>
</g>
</svg>
