<?xml version="1.0" encoding="utf-8"?>
<!-- Generator: Adobe Illustrator 21.1.0, SVG Export Plug-In . SVG Version: 6.00 Build 0)  -->
<svg version="1.1" id="Layer_1" xmlns="http://www.w3.org/2000/svg" xmlns:xlink="http://www.w3.org/1999/xlink" x="0px" y="0px"
	 viewBox="0 0 128 128" style="enable-background:new 0 0 128 128;" xml:space="preserve">
<style type="text/css">
	.st0{fill:#FFFFFF;}
</style>
<g>
	<path class="st0" d="M84.5,63c-6.4-0.3-12.5-1.9-17.8-5.7C54.5,48.7,42,46.1,28.8,55.1c-1.7,1.1-3.2,1.2-4.3-0.5
		c-1.3-1.9,0.6-2.7,1.7-3.5c10.7-7.3,22-9,33.9-3.2c2.2,1.1,4.6,2.1,6.5,3.6c11.5,8.9,23.4,7.7,35.6,1.7c0.9-0.4,1.8-0.9,2.6-1.4
		c1.5-0.8,2.9-0.9,3.9,0.7c1,1.8-0.2,2.8-1.6,3.6C100.2,60.2,92.6,62.5,84.5,63z"/>
	<path class="st0" d="M83.7,78.3c-5.5,0.2-11.3-1.7-16.5-5.2c-4.6-3.1-9.2-5.9-14.7-7.2c-7.3-1.7-14.2-0.8-20.7,2.9
		c-1.2,0.7-2.3,1.4-3.5,2c-1.5,0.7-3,0.6-3.9-0.9c-0.9-1.6,0.5-2.4,1.6-3.1c8.7-5.9,18-8.5,28.3-5.4c4.5,1.3,8.9,3.1,12.6,5.9
		c11,8.5,22.4,7.7,34.2,2.1c0.9-0.4,1.8-0.9,2.7-1.4c1.6-0.8,3.5-2.1,4.8,0c1.5,2.4-0.8,3.3-2.3,4.1C99.6,75.7,92.4,78.3,83.7,78.3z
		"/>
	<path class="st0" d="M45.8,75.7c7.9-0.2,14.8,2.4,20.7,6.8c11.7,8.7,23.4,7.8,35.6,1.8c2-1,4.7-4,6.4-0.9c2,3.6-2.4,4.1-4.4,5.1
		c-13.5,6.9-26.7,7.7-39.8-1.7c-11.1-8-22.9-9.2-34.9-1.3c-1.6,1.1-3.3,2.1-4.8,0.1c-1.8-2.5,0.8-3.2,2.1-4
		C32.7,77.9,38.9,75.3,45.8,75.7z"/>
</g>
</svg>
