<?xml version="1.0" encoding="utf-8"?>
<!-- Generator: Adobe Illustrator 21.1.0, SVG Export Plug-In . SVG Version: 6.00 Build 0)  -->
<svg version="1.1" id="Layer_1" xmlns="http://www.w3.org/2000/svg" xmlns:xlink="http://www.w3.org/1999/xlink" x="0px" y="0px"
	 viewBox="0 0 100 100" style="enable-background:new 0 0 100 100;" xml:space="preserve">
<style type="text/css">
	.st0{display:none;}
	.st1{display:inline;}
	.st2{fill:#F5A923;}
	.st3{fill:#F6AD2C;}
	.st4{fill:#F5A821;}
	.st5{fill:#F5A922;}
	.st6{fill:#F5A81F;}
	.st7{fill:#F6AB28;}
	.st8{fill:#F5AB28;}
	.st9{fill:#005E70;}
	.st10{fill:#F5A71D;}
	.st11{fill:#F6AA26;}
	.st12{fill:#F5A71F;}
	.st13{fill:#F5A61C;}
	.st14{fill:#FFFFFF;}
	.st15{fill:#0260FF;}
</style>
<g class="st0">
	<g class="st1">
		<path class="st2" d="M67.5,47.4c-12.2-0.1-22-10.1-21.9-22.5C45.7,12.7,56,2.6,68,2.9c12.3,0.3,22.1,10.3,22,22.5
			C89.9,37.5,79.7,47.5,67.5,47.4z M67.8,8.4C58.6,8.4,51,16,51,25.2s7.6,16.6,16.9,16.5c9.3-0.1,16.3-7.2,16.4-16.4
			C84.4,15.8,77.1,8.4,67.8,8.4z"/>
		<path class="st3" d="M49.3,4.5c-0.5,1.9-1.8,3.3-3.9,1.9c-3.1-2-5.8-4.6-7.7-7.7C36.4-3.4,38-4.8,40.1-5
			C42.1-5.2,49.4,2.4,49.3,4.5z"/>
		<path class="st4" d="M33.3,22.3c2.6,0.6,6.9-1.4,7,2.6c0.1,4.5-4.3,2.9-6.9,3c-3,0.1-7.8,1-7.7-2.8C25.6,21.1,30.5,22.9,33.3,22.3
			z"/>
		<path class="st4" d="M70.6,59.9c-0.5,2.7,1.2,6.9-2.8,6.9c-4,0.1-3-4.2-2.7-6.7c0.3-2.7-2.2-7.5,2.8-7.4
			C72.2,52.8,69.9,57.4,70.6,59.9z"/>
		<path class="st5" d="M70.7-9.7c-0.8,2.8,1.5,7.3-3.1,7.3c-4,0-2.3-4.3-2.6-6.8c0-0.2,0-0.3,0-0.5c0.5-2.5-1.5-6.7,2.6-6.8
			C72.2-16.5,69.8-11.9,70.7-9.7z"/>
		<path class="st6" d="M102.1,22.3c3,0.5,7.3-1.2,7.4,2.7c0,4.3-4.4,2.9-7.1,2.9c-2.6,0-7.2,1.5-7-2.9
			C95.4,20.4,100.1,23.5,102.1,22.3z"/>
		<path class="st7" d="M99-3.2c0.2,2.5-7.4,10.1-9.4,9.6c-2.1-0.5-3.4-2-1.8-4C90-0.3,92.4-2.9,95.2-5C97-6.5,98.4-5,99-3.2z"/>
		<path class="st8" d="M99,53.4c-0.6,2.3-2.5,3.1-4.4,1.6c-2.6-2-5-4.4-7-7c-1.7-2.3,0.2-3.7,2.3-4.2C91.5,43.5,99.1,51.6,99,53.4z"
			/>
		<path class="st7" d="M40,56.3c-1.7-0.8-3.7-2-1.9-4.3c2-2.6,4.4-5,7-7c2-1.6,3.8-0.7,4.2,1.9C49.4,48.7,42,56.3,40,56.3z"/>
	</g>
</g>
<path class="st9" d="M85.3,28c-3.9,2-8,3.8-12.3,5.2c1.1,0.9,2.4,1.3,2.5,2.8c0.1,2-0.6,3.6-2,5c-0.7,0.6-1.2,1.4-2.1,2
	c0.3,0,0.6,0,0.9,0.1c3,0.5,4.2,2.5,3,5.4c-1.1,2.7-3.1,4.7-5.3,6.6c-3.6,3.2-7.6,5.8-11.8,8.2c-0.3,0.2-0.9,0.6,0.1,0.8
	c4.4,1.2,4.4,4.9,3.1,9.1c-0.8,2.7-2.8,4.9-4.6,7c-3.6,4.3-7.5,8.4-10.5,13.2c0,0.1-0.2,0-0.3,0.1c-0.7-2.8-0.1-5.2,1.9-7.3
	c2.3-2.6,4.5-5.2,6.8-7.8c2.1-2.3,4.3-4.7,6-7.4c0.8-1.4,0.7-1.7-0.7-2.7c-1.6-1.3-3.6-1.5-5.5-2c-0.7-0.2-1.4,0.1-2.1,0.4
	c-5.7,3-11.6,5.5-17.8,7.4c-4.3,1.3-8.7,2.1-13.2,1.7c-1.8-0.1-4.1-0.3-4.7-2.6c-0.6-2.2-0.4-5.3,1.9-6.6c2.9-1.7,6.1-2.7,9.4-3.3
	c5.5-1,11.1-1,16.7-0.9c2.7,0.1,5.4,0.4,8.1,0.8c0.9,0.1,1.6-0.5,2.2-0.8c3.2-1.9,6.6-3.5,9.7-5.6c3.5-2.4,7-4.9,9.6-8.4
	c1.3-1.7,0.8-2.9-1.4-3.3c-2-0.4-3.7-0.3-5.6,1.1c-5.2,3.8-10.8,6.8-17.1,8.6c-3.1,0.9-6.2,1.5-9.4,1.4c-0.7,0-1.4-0.2-2.1-0.3
	c-1.3-0.3-2.7-0.8-2.9-2.3c-0.3-1.8-0.2-3.7,1.7-4.9c3-1.9,6.3-2.9,9.7-3.6c4.3-0.8,8.7-1.4,13.1-1.6c2.5-0.1,4.9-0.1,7.4-0.2
	c0.8,0,1.4-0.1,2-0.6c1.5-1.2,3.1-2.3,4.4-3.7c2-2.2,1-3.1-1-4.3c-1.7-1-3.5-0.2-5.3,0.1c-1.4,0.2-2.8,0.9-4.3,0.2
	c-0.3-0.1-0.8,0-0.8-0.6c0-0.6,0.1-1,0.7-1.1c0.7-0.2,1.4-0.4,2.1-0.4c1.9,0.1,3.8-0.1,5.8,0.2c1.6,0.3,3.1-0.8,4.6-1.3
	c2.8-0.9,5.4-2,8-3.4C84.1,28,84.6,27.4,85.3,28z M65.2,45c-5.6-0.1-11.1,0.5-16.6,1.6c-3.8,0.7-7.4,1.7-10.6,3.9
	c-0.7,0.5-1.6,0.9-1.4,1.7c0.2,0.8,1.3,1,2,1.3c0.1,0.1,0.3,0,0.5,0c2.6,0.6,5.1,0.2,7.7-0.3c6.8-1.3,13-4.2,18.8-7.9
	c0.4-0.3,0.2-0.2,0.5-0.4C65.9,45,65.8,44.9,65.2,45z M47.5,65.8c-0.3-0.2-0.5-0.3-0.7-0.4c-0.2-0.1-0.5-0.1-0.7-0.1
	c-7.3,0-14.6-0.4-21.7,1.8c-2.5,0.8-4.9,1.8-7,3.8c1.3,0.8,2.6,1.3,4,1.3c3.2,0,6.5-0.2,9.7-0.8C36.9,70.2,42.2,68.1,47.5,65.8z"/>
<path class="st10" d="M24.3,53.4c-5.3-1.5-8.4-6.4-7.7-12.3c0.7-4.9,5.5-8.9,10.6-8.8c5.5,0,10.1,4,10.8,9.2
	c0.1,0.6,0.1,1.2,0.1,1.8c-0.1,0.7-0.6,1-1.3,1c-0.8-0.1-1.2-0.6-1.2-1.3c0-1.7-0.5-3.2-1.5-4.6c-2-3-6.1-4.3-9.6-3.1
	c-3.6,1.3-5.9,4.8-5.6,8.5c0.3,3.7,3.2,7,6.6,7.6c0.9,0.2,2.4-0.2,2.1,1.4c-0.3,1.7-1.7,1-2.7,0.8C24.7,53.5,24.5,53.4,24.3,53.4z"
	/>
<path class="st11" d="M11.5,37.5c1,0.5,3.1,0.2,2.7,2c-0.5,1.9-2.3,0.6-3.4,0.4c-0.7-0.1-1.3-0.4-1.9-0.5c-0.8-0.2-1.4-0.8-1.2-1.6
	c0.2-0.8,1-1,1.8-0.9C10.1,37.1,10.7,37.3,11.5,37.5z"/>
<path class="st5" d="M39,34.9c0.2-0.7,4.6-3.2,5.3-3.1c0.9,0.2,1.3,1.6,0.4,2.1c-1.3,1-2.8,1.7-4.3,2.5c-0.5,0.2-0.9,0.1-1.2-0.3
	C39.1,35.8,38.8,35.4,39,34.9z"/>
<path class="st4" d="M9.7,52.3c0.2-0.2,0.4-0.6,0.7-0.8c1.2-0.8,2.4-1.4,3.7-2.1c0.5-0.3,1.1-0.5,1.6,0.2c0.5,0.7,0.4,1.4-0.2,1.7
	c-1.3,0.9-2.8,1.8-4.3,2.4C10.1,54.2,9.8,53.2,9.7,52.3z"/>
<path class="st12" d="M17.9,24.8c0.8,0.2,3.3,4.8,3.2,5.4c-0.1,0.5-0.5,0.7-0.9,0.9c-0.6,0.2-1,0-1.3-0.5c-0.7-1.3-1.5-2.6-2.2-3.9
	c-0.3-0.5-0.3-1.1,0.1-1.4C17.2,25,17.7,24.9,17.9,24.8z"/>
<path class="st10" d="M30.5,26.5c0.2-0.8,0.3-1.4,0.6-2.2c0.2-0.7,0.8-1.3,1.5-1.1c0.6,0.2,0.9,1,0.7,1.7c-0.3,1.4-0.7,2.7-1.1,4.1
	c-0.2,0.8-0.7,1.2-1.5,1c-0.8-0.2-0.9-0.9-0.8-1.6C30.2,27.7,30.4,27.1,30.5,26.5L30.5,26.5z"/>
<path class="st13" d="M21.8,59c0.2-0.7,0.4-1.3,0.5-1.9c0.2-0.8,0.7-1.2,1.4-1c0.8,0.2,1,0.8,0.8,1.6c-0.4,1.3-0.7,2.7-1.1,4.1
	c-0.2,0.8-0.7,1.1-1.5,0.8c-0.7-0.2-0.9-0.8-0.8-1.4C21.4,60.4,21.6,59.7,21.8,59L21.8,59z"/>
<path class="st14" d="M84,37.6c-0.9,0-1.8,0-2.7,0c-0.9,0-1.7-0.1-1.7-1.2c0-1.1,0.9-1.2,1.8-1.2c1.4,0,2.8,0,4.3,0
	c3.8-0.1,6.6-2.8,6.5-6.3c-0.1-3.6-3.1-6.2-7-5.8c-1.5,0.1-1.3-0.5-0.9-1.4c2.2-5.4-1.5-10.6-5.1-12.2c-4.8-1.9-9.5-0.4-12.4,4.5
	C66.1,15,66,15,65.1,14.5c-2.1-1.3-4.2-1.3-6.3,0c-2.1,1.3-3,3.3-2.7,5.7c0.2,1.1-0.2,1.4-1.4,1.7c-3.4,0.8-5.4,3.9-4.9,7.5
	c0.4,3.1,3.1,5.6,6.4,5.8c1.4,0.1,2.8,0,4.3,0c0.8,0,1.5,0.3,1.5,1.3c0,1-0.6,1.3-1.5,1.2c-2.2-0.2-4.4,0.3-6.7-0.4
	c-3.7-1.2-6.5-4.3-6.6-8.4c-0.1-3.6,1.5-6.5,4.7-8.3c1.1-0.6,1.5-1.3,1.7-2.5c1-5.1,5.2-7.7,10.3-6.6c0.8,0.2,1.3,0,1.9-0.6
	c3.7-4.2,8.6-5.5,13.5-3.8c4.9,1.8,7.7,6.2,7.8,11.9c0,0.9,0,1.5,1,1.9c4.6,1.8,7.1,5.6,6.3,9.3c-1,4.9-4.4,7.5-9.7,7.5
	C84.6,37.6,84.3,37.6,84,37.6z"/>
<path class="st15" d="M36.5,83.1c-0.9,1.4-1.7,3-3.1,4.1c-0.4,0.3-0.8,0-1.2-0.3c-0.4-0.4-0.6-0.9-0.3-1.4c0.8-1.2,1.6-2.3,2.4-3.4
	c0.3-0.4,0.8-0.5,1.4-0.2C36.1,82.1,36.4,82.4,36.5,83.1z"/>
<path class="st15" d="M42,74.6c-0.7,1.4-1.6,2.9-3,4c-0.4,0.3-0.9,0-1.2-0.3c-0.5-0.4-0.5-1-0.2-1.4c0.7-1.1,1.5-2.2,2.3-3.3
	c0.3-0.4,0.8-0.6,1.4-0.3C41.8,73.4,42,73.8,42,74.6z"/>
<path class="st15" d="M43.9,78.7c-0.8-0.1-1.3-0.7-1.1-1.5c0.5-1.5,1.5-2.8,2.6-3.8c0.8-0.7,1.6-0.1,1.9,0.8
	C47.5,74.8,44.7,78.6,43.9,78.7z"/>
<path class="st15" d="M49.1,78.7c-0.7-0.3-1.6-0.7-1-1.7c0.7-1.3,1.5-2.4,2.4-3.5c0.7-0.8,1.5-0.5,1.9,0.4
	C52.8,74.8,50.1,78.6,49.1,78.7z"/>
<path class="st15" d="M45.8,81.6c0.9,0.3,1.4,1,0.9,1.9c-0.7,1.2-1.5,2.3-2.3,3.3c-0.7,0.9-1.5,0.6-1.9-0.3
	C42,85.6,44.8,81.5,45.8,81.6z"/>
<path class="st15" d="M41.8,82.9c-1,1.6-1.8,3.2-3.2,4.3c-0.5,0.3-0.8-0.1-1.1-0.4c-0.4-0.3-0.6-0.8-0.3-1.2
	c0.8-1.3,1.8-2.5,2.7-3.7c0.3-0.4,0.9-0.4,1.2,0C41.3,82.1,41.5,82.5,41.8,82.9z"/>
</svg>
