<?xml version="1.0" encoding="utf-8"?>
<!-- Generator: Adobe Illustrator 21.1.0, SVG Export Plug-In . SVG Version: 6.00 Build 0)  -->
<svg version="1.1" id="Layer_1" xmlns="http://www.w3.org/2000/svg" xmlns:xlink="http://www.w3.org/1999/xlink" x="0px" y="0px"
	 viewBox="0 0 128 128" style="enable-background:new 0 0 128 128;" xml:space="preserve">
<g>
	<g>
		<path d="M67.2,102.1c-9.7,0-19.3,0-29,0c-11.7,0-20.7-6-23.6-15.6c-3.1-10,0-17.4,10.6-24.7c1.7-1.2,2.2-2.6,2.7-4.5
			c2.9-11.4,11-17,22.6-15.4c2.5,0.3,4-0.3,5.6-1.9c8.3-8.4,18.2-11.7,29.5-7.3c11.5,4.5,17.8,13.1,17.6,25.7c0,2.8,1,4.1,3.5,5.2
			c9.1,3.9,14.7,13,13.1,20.7c-2,10.1-10.6,17.5-21.3,17.7C88.2,102.3,77.7,102.1,67.2,102.1z M67,94.8c11,0,22,0.1,33,0
			c7.6-0.1,13.3-5.6,13.4-12.6c0.1-7.2-5.3-12.9-13-12.9c-4.4,0-5.3-1-4.2-5.4c2.8-10.6-2.4-20.7-11.8-24.7
			c-9.7-4.1-20-0.7-25.9,8.7c-1.6,2.6-2.7,3.3-5.8,1.8c-9.5-4.5-18.4,1.3-18.3,12c0,3.1-0.9,4.2-3.9,5.1C23.2,69,19.2,75.8,20.4,83
			c1.2,6.9,7,11.7,14.6,11.7C45.7,94.8,56.4,94.8,67,94.8z"/>
		<path d="M80.3,59.6c0.2,3-0.9,5.6-2.9,7.7c-2.8,2.9-5.4,5.7-5.7,10.1c-0.1,1.5-1.3,2.8-3.1,2.6c-2-0.2-2.7-1.6-2.9-3.4
			c-0.3-3.3,0.4-6.3,2.6-8.8c1.1-1.3,2.3-2.4,3.4-3.7c1.6-1.8,2.8-3.9,1.6-6.3c-0.8-1.6-2.3-2.5-4.1-2.3c-2.5,0.3-4.3,1.6-4.9,4.2
			c-0.5,2.3-1.5,4.4-4.3,3.4c-2.6-0.9-2.5-3.3-2-5.5c1-5.2,7-9.3,12.4-8.7C76.1,49.7,80.2,54.1,80.3,59.6z"/>
		<path d="M68.9,91.6c-2.5-0.2-4.1-1.4-4.2-4c-0.1-2.5,1.4-4.2,3.8-4.3c2.7-0.1,4.5,1.6,4.5,4.2C72.9,89.8,71.3,91.3,68.9,91.6z"/>
	</g>
</g>
</svg>
