<?xml version="1.0" encoding="utf-8"?>
<!-- Generator: Adobe Illustrator 21.1.0, SVG Export Plug-In . SVG Version: 6.00 Build 0)  -->
<svg version="1.1" id="Layer_1" xmlns="http://www.w3.org/2000/svg" xmlns:xlink="http://www.w3.org/1999/xlink" x="0px" y="0px"
	 viewBox="0 0 128 128" style="enable-background:new 0 0 128 128;" xml:space="preserve">
<style type="text/css">
	.st0{fill:#FFFFFF;}
</style>
<g>
	<path class="st0" d="M67.2,102.1c-10.2,0-20.3,0.1-30.4,0c-11-0.2-19.5-6.6-22.4-16.5c-2.6-9.1,0.8-17.2,10.4-23.5
		c1.9-1.2,2.6-2.7,3.1-4.7c2.9-11.4,10.9-17,22.6-15.4c2.5,0.3,4-0.3,5.6-1.9c8.3-8.4,18.2-11.7,29.5-7.2
		c11.5,4.5,17.8,13.1,17.6,25.7c0,2.8,1,4.1,3.5,5.2c9.1,3.9,14.7,13,13.1,20.7c-2,10.1-10.6,17.3-21.3,17.8c-0.3,0-0.7,0-1,0
		C87.5,102.1,77.4,102.1,67.2,102.1z M67,94.8c11,0,22,0.1,33,0c7.6-0.1,13.3-5.6,13.4-12.6c0.1-7.2-5.3-12.9-13-12.9
		c-4.5,0-5.3-1-4.2-5.4c2.7-10.6-2.4-20.7-11.8-24.7c-9.7-4.1-20-0.7-25.9,8.7c-1.6,2.6-2.7,3.3-5.8,1.8
		c-9.3-4.4-18.4,1.3-18.4,11.5c0,3.1-0.5,4.6-3.9,5.6c-7.4,2.2-11.3,9.1-10.1,16.3c1.2,6.9,7,11.6,14.6,11.7
		C45.7,94.8,56.4,94.8,67,94.8z"/>
	<path class="st0" d="M80.3,59.6c0.2,3.4-1.3,6.2-3.6,8.5c-2.5,2.5-4.7,5.1-4.9,8.9c-0.1,1.7-1.2,3.3-3.2,3.1
		c-2.3-0.2-2.8-1.9-2.9-3.9c-0.4-4.6,1.9-7.9,5-10.9c2.1-2,4-4.2,2.6-7.4c-0.7-1.6-2.3-2.5-4.1-2.3c-3,0.3-4.6,2.2-5.2,5.2
		c-0.3,1.8-1.6,3-3.6,2.6c-2.5-0.5-2.8-2.5-2.6-4.7c0.4-5.4,6.3-10.1,12-9.7C75.7,49.3,80.2,54,80.3,59.6z"/>
	<path class="st0" d="M68.9,91.6c-2.5-0.2-4.1-1.4-4.2-4c-0.1-2.5,1.3-4.2,3.8-4.3c2.7-0.2,4.5,1.6,4.5,4.2
		C72.9,89.8,71.3,91.3,68.9,91.6z"/>
</g>
</svg>
