<?xml version="1.0" encoding="utf-8"?>
<!-- Generator: Adobe Illustrator 21.1.0, SVG Export Plug-In . SVG Version: 6.00 Build 0)  -->
<svg version="1.1" id="Layer_1" xmlns="http://www.w3.org/2000/svg" xmlns:xlink="http://www.w3.org/1999/xlink" x="0px" y="0px"
	 viewBox="0 0 270 430" style="enable-background:new 0 0 270 430;" xml:space="preserve">
<style type="text/css">
	.st0{fill:#26898F;}
</style>
<path class="st0" d="M135,216.1c2.4,0,4.8,0.7,6.6,2l89.4,59.6c3.2,2.1,5.4,5.7,5.4,9.9v35.8c0,6.6-5.4,11.9-11.9,11.9
	c-2.4,0-4.8-0.7-6.6-2L135,278.1l-82.9,55.2c-1.8,1.3-4.2,2-6.6,2c-6.6,0-11.9-5.4-11.9-11.9v-35.8c0-4.2,2.1-7.8,5.4-9.9l89.4-59.6
	C130.2,216.8,132.6,216.1,135,216.1z"/>
<path class="st0" d="M135,96.7c2.4,0,4.8,0.7,6.6,2l89.4,59.7c3.2,2.1,5.4,5.7,5.4,9.9v35.8c0,6.6-5.4,11.9-11.9,11.9
	c-2.4,0-4.8-0.7-6.6-2L135,158.8L52.1,214c-1.8,1.3-4.2,2-6.6,2c-6.6,0-11.9-5.4-11.9-11.9v-35.9c0-4.2,2.1-7.8,5.4-9.9l89.4-59.6
	C130.2,97.5,132.6,96.7,135,96.7z"/>
</svg>
